<?xml version="1.0" encoding="UTF-8" standalone="no"?>
<svg
   xmlns:dc="http://purl.org/dc/elements/1.1/"
   xmlns:cc="http://creativecommons.org/ns#"
   xmlns:rdf="http://www.w3.org/1999/02/22-rdf-syntax-ns#"
   xmlns:svg="http://www.w3.org/2000/svg"
   xmlns="http://www.w3.org/2000/svg"
   xmlns:sodipodi="http://sodipodi.sourceforge.net/DTD/sodipodi-0.dtd"
   xmlns:inkscape="http://www.inkscape.org/namespaces/inkscape"
   x="0px"
   y="0px"
   width="80px"
   height="16px"
   viewBox="0 0 80 16"
   id="svg2"
   version="1.1"
   inkscape:version="0.91 r13725"
   sodipodi:docname="cd-sprite-1.svg">
  <metadata
     id="metadata42">
    <rdf:RDF>
      <cc:Work
         rdf:about="">
        <dc:format>image/svg+xml</dc:format>
        <dc:type
           rdf:resource="http://purl.org/dc/dcmitype/StillImage" />
      </cc:Work>
    </rdf:RDF>
  </metadata>
  <defs
     id="defs40" />
  <sodipodi:namedview
     pagecolor="#ffffff"
     bordercolor="#666666"
     borderopacity="1"
     objecttolerance="10"
     gridtolerance="10"
     guidetolerance="10"
     inkscape:pageopacity="0"
     inkscape:pageshadow="2"
     inkscape:window-width="1842"
     inkscape:window-height="1051"
     id="namedview38"
     showgrid="false"
     inkscape:zoom="10.392969"
     inkscape:cx="51.084867"
     inkscape:cy="-4.9639082"
     inkscape:window-x="69"
     inkscape:window-y="-9"
     inkscape:window-maximized="1"
     inkscape:current-layer="svg2" />
  <g
     transform="translate(16, 0)"
     id="g12"
     style="fill:#ffffff;fill-opacity:1">
    <path
       d="M15,1H1C0.4,1,0,1.4,0,2v12c0,0.6,0.4,1,1,1h14c0.6,0,1-0.4,1-1V2C16,1.4,15.6,1,15,1z M14,13H2V6.7l5.5,3.1  C7.7,10,7.8,10,8,10s0.3,0,0.5-0.1L14,6.7V13z M14,4.4L8,7.8L2,4.4V3h12V4.4z"
       id="path14"
       style="fill:#ffffff;fill-opacity:1"
       fill="#ffffff" />
  </g>
  <g
     transform="translate(32, 0)"
     id="g16"
     style="fill:#ffffff;fill-opacity:1">
    <path
       d="M3,16h10c0.6,0,1-0.4,1-1V7.5l0.3,0.3C14.5,7.9,14.8,8,15,8c0.3,0,0.6-0.1,0.8-0.3c0.4-0.4,0.3-1-0.1-1.4  l-7-6c-0.4-0.3-0.9-0.3-1.3,0L4,3.1V2c0-0.6-0.4-1-1-1S2,1.4,2,2v2.8L0.3,6.2c-0.4,0.4-0.5,1-0.1,1.4c0.4,0.4,1,0.5,1.4,0.1L2,7.5  V15C2,15.6,2.4,16,3,16z M4,5.7l4-3.4l4,3.5c0,0.1,0,0.1,0,0.2v8h-2v-3c0-0.6-0.4-1-1-1H7c-0.6,0-1,0.4-1,1v3H4V5.7z"
       id="path18"
       style="fill:#ffffff;fill-opacity:1"
       fill="#ffffff" />
    <rect
       data-color="color-2"
       x="6"
       y="6"
       width="4"
       height="2"
       id="rect20"
       style="fill:#ffffff;fill-opacity:1"
       fill="#ffffff" />
  </g>
  <g
     transform="translate(0.01443287,0.1924378)"
     id="g28"
     style="fill:#ffffff;fill-opacity:1">
    <path
       d="M 6,0 1,0 C 0.4,0 0,0.4 0,1 L 0,6 C 0,6.6 0.4,7 1,7 L 6,7 C 6.6,7 7,6.6 7,6 L 7,1 C 7,0.4 6.6,0 6,0 Z M 5,5 2,5 2,2 5,2 5,5 Z"
       id="path30"
       style="fill:#ffffff;fill-opacity:1"
       inkscape:connector-curvature="0" />
    <path
       d="M 15,0 10,0 C 9.4,0 9,0.4 9,1 l 0,5 c 0,0.6 0.4,1 1,1 l 5,0 c 0.6,0 1,-0.4 1,-1 L 16,1 C 16,0.4 15.6,0 15,0 Z m -1,5 -3,0 0,-3 3,0 0,3 z"
       id="path32"
       style="fill:#ffffff;fill-opacity:1"
       inkscape:connector-curvature="0" />
    <path
       d="M 6,9 1,9 C 0.4,9 0,9.4 0,10 l 0,5 c 0,0.6 0.4,1 1,1 l 5,0 c 0.6,0 1,-0.4 1,-1 L 7,10 C 7,9.4 6.6,9 6,9 Z m -1,5 -3,0 0,-3 3,0 0,3 z"
       id="path34"
       style="fill:#ffffff;fill-opacity:1"
       inkscape:connector-curvature="0" />
    <path
       d="M 15,9 10,9 C 9.4,9 9,9.4 9,10 l 0,5 c 0,0.6 0.4,1 1,1 l 5,0 c 0.6,0 1,-0.4 1,-1 l 0,-5 C 16,9.4 15.6,9 15,9 Z m -1,5 -3,0 0,-3 3,0 0,3 z"
       id="path36"
       style="fill:#ffffff;fill-opacity:1"
       inkscape:connector-curvature="0" />
  </g>
  <g
     id="g10"
     transform="translate(47.903179,0.01383194)"
     style="fill:#ffffff;fill-opacity:1">
    <path
       style="fill:#ffffff;fill-opacity:1"
       inkscape:connector-curvature="0"
       d="M 15,16 1,16 C 0.4,16 0,15.6 0,15 L 0,1 C 0,0.4 0.4,0 1,0 l 14,0 c 0.6,0 1,0.4 1,1 l 0,14 c 0,0.6 -0.4,1 -1,1 z M 2,14 14,14 14,2 2,2 2,14 Z"
       id="path12" />
    <path
       style="fill:#ffffff;fill-opacity:1"
       inkscape:connector-curvature="0"
       data-color="color-2"
       d="M 6,4 C 6.6,4 7,4.4 7,5 7,5.6 6.6,6 6,6 5.4,6 5,5.6 5,5 5,4.4 5.4,4 6,4 Z"
       id="path14-1" />
    <polygon
       style="fill:#ffffff;fill-opacity:1"
       data-color="color-2"
       points="13,12 3,12 5,8 7,10 10,6 "
       id="polygon16" />
  </g>
  <circle
     cx="72.136055"
     cy="5.7600513"
     r="4"
     id="circle3"
     style="fill:#ffffff;fill-opacity:1" />
  <path
     inkscape:connector-curvature="0"
     d="m 78.236054,0.46005013 -1.7,1.09999997 c 0.7,1 2,2.6 1.5,5.3 -0.6,3.2999999 -3.7,5.3999999 -7,4.7999999 -2.7,-0.5 -3.8,-2.3999999 -4.4,-3.3999999 l -1.7,1.1 c 0.7,0.9999999 2.3,3.7999999 6.2,4.2999999 l 0,2.1 2,0 0,-2.1 c 3.4,-0.4 6.2,-3 6.9,-6.4999999 0.6,-3.4 -1.1,-5.6 -1.8,-6.69999997 z"
     id="path5"
     style="fill:#ffffff;fill-opacity:1" />
</svg>
