<?xml version="1.0" encoding="UTF-8" standalone="no"?>
<svg
   xmlns:dc="http://purl.org/dc/elements/1.1/"
   xmlns:cc="http://creativecommons.org/ns#"
   xmlns:rdf="http://www.w3.org/1999/02/22-rdf-syntax-ns#"
   xmlns:svg="http://www.w3.org/2000/svg"
   xmlns="http://www.w3.org/2000/svg"
   viewBox="0 0 283.7345 181.91457"
   height="181.91457"
   width="283.7345"
   version="1.1"
   id="svg2">
  <metadata
     id="metadata8">
    <rdf:RDF>
      <cc:Work
         rdf:about="">
        <dc:format>image/svg+xml</dc:format>
        <dc:type
           rdf:resource="http://purl.org/dc/dcmitype/StillImage" />
        <dc:title></dc:title>
      </cc:Work>
    </rdf:RDF>
  </metadata>
  <defs
     id="defs6" />
  <path
     id="path4166"
     d="m 140.44335,181.3755 c -1.74142,-1.74142 -0.61818,-3.49793 2.04115,-3.19194 1.63715,0.18837 2.75,0.92343 2.75,1.81642 0,1.57227 -3.56958,2.59708 -4.79115,1.37552 z m -18.22848,-1.40728 c -0.38836,-0.62838 -0.23556,-1.61305 0.33954,-2.18815 1.3439,-1.3439 4.47714,-0.17169 3.93038,1.47044 -0.5566,1.67168 -3.38637,2.14732 -4.26992,0.71771 z m 36.51963,-0.89492 c 0,-1.43109 0.64223,-2.07332 2.07332,-2.07332 1.4311,0 1.96962,0.53852 1.73852,1.73852 -0.50201,2.60673 -3.81184,2.89745 -3.81184,0.3348 z m -53.5,-1.07332 c -0.83704,-1.35436 0.29243,-3 2.05902,-3 0.79254,0 1.44098,0.9 1.44098,2 0,2.07031 -2.41251,2.7596 -3.5,1 z m 71.16667,0.33333 c -1.37657,-1.37656 -0.59386,-3.33333 1.33333,-3.33333 1.33333,0 2,0.66667 2,2 0,1.92719 -1.95677,2.7099 -3.33333,1.33333 z m -88.330838,-3.90055 c -0.83346,-2.17196 1.28244,-4.21451 2.79695,-2.7 1.28004,1.28004 0.48705,4.26722 -1.13278,4.26722 -0.58452,0 -1.3334,-0.70525 -1.66417,-1.56722 z m 104.852328,-1.1713 c 0.50201,-2.60673 3.81184,-2.89745 3.81184,-0.3348 0,1.43109 -0.64223,2.07332 -2.07332,2.07332 -1.4311,0 -1.96962,-0.53852 -1.73852,-1.73852 z M 71.805242,170.0437 c -1.41865,-0.87677 -0.81135,-4.04372 0.77543,-4.04372 0.49992,0 1.41959,0.61529 2.04372,1.36732 1.46688,1.76748 -0.80301,3.92244 -2.81915,2.6764 z M 209.7345,168.0733 c 0,-1.43109 0.64223,-2.07332 2.07332,-2.07332 1.4311,0 1.96962,0.53852 1.73852,1.73852 -0.50201,2.60673 -3.81184,2.89745 -3.81184,0.3348 z M 55.180652,162.91285 c -0.94095,-1.52249 1.10241,-3.30008 2.96977,-2.58351 0.89841,0.34476 1.3022,1.24162 0.96023,2.13279 -0.68249,1.77855 -2.94872,2.03846 -3.93,0.45072 z M 225.7345,160.92666 c 0,-2.56265 3.30983,-2.27193 3.81184,0.3348 0.2311,1.2 -0.30742,1.73852 -1.73852,1.73852 -1.43109,0 -2.07332,-0.64223 -2.07332,-2.07332 z M 39.924872,153.24998 c 0.18536,-0.9625 0.99969,-1.75 1.80963,-1.75 0.80994,0 1.62427,0.7875 1.80963,1.75 0.23646,1.22785 -0.30348,1.75 -1.80963,1.75 -1.50615,0 -2.04609,-0.52215 -1.80963,-1.75 z m 201.145458,0.18278 c -0.83346,-2.17196 1.28244,-4.21451 2.79695,-2.7 1.28004,1.28004 0.48705,4.26722 -1.13278,4.26722 -0.58452,0 -1.3334,-0.70525 -1.66417,-1.56722 z M 67.363332,152.5474 c 1.47975,-1.03646 2.6105,-3.90024 3.94717,-9.99682 1.86015,-8.48418 1.89778,-8.54884 5.35138,-9.19675 2.08262,-0.3907 5.10189,-0.0911 7.52534,0.74684 3.18532,1.1013 4.11229,1.96029 4.35251,4.0333 0.39217,3.38425 -3.83023,6.89134 -8.19009,6.80262 -3.06471,-0.0624 -3.07513,-0.0793 -0.64337,-1.04981 2.95547,-1.17945 3.99235,-2.62683 4.01292,-5.60161 0.0153,-2.21662 -3.56614,-5.03706 -4.81295,-3.79025 -0.36134,0.36133 -1.61768,4.48268 -2.79188,9.15854 l -2.1349,8.50159 2.12752,0.85908 c 1.52489,0.61574 0.29415,0.87703 -4.34499,0.92246 -5.93598,0.0581 -6.3006,-0.057 -4.39866,-1.38919 z m 25.53337,0.42162 c 2.25435,-1.31576 3.5335,-8.9136 1.6966,-10.07746 -1.00274,-0.63534 -0.79064,-0.86496 0.80941,-0.87626 1.19252,-0.008 2.88002,-0.28845 3.75,-0.6223 1.073558,-0.41196 1.581788,-0.0409 1.581788,1.15499 0,1.67777 0.0938,1.67709 1.96275,-0.0143 2.72921,-2.4699 5.54256,-1.3464 3.97289,1.58654 -0.85507,1.5977 -1.35394,1.82095 -1.9422,0.86912 -1.16932,-1.89198 -3.87114,-0.43883 -5.085118,2.73499 -0.7544,1.97231 -0.74761,3.28212 0.0235,4.52563 0.976488,1.57477 0.608688,1.74696 -3.67333,1.71959 -3.55984,-0.0227 -4.33977,-0.27478 -3.09627,-1.00055 z m 18.060308,-0.52574 c -2.99071,-2.09478 -2.79749,-4.51825 0.62139,-7.79375 3.25768,-3.12104 8.89057,-4.3972 12.01895,-2.72294 4.28826,2.295 1.68325,8.77467 -4.46788,11.11332 -3.55023,1.3498 -5.60803,1.19957 -8.17246,-0.59663 z m 8.20456,-1.01323 c 3.3842,-3.38419 3.22988,-9.43006 -0.2407,-9.43006 -3.70709,0 -7.39398,6.83999 -5.14654,9.54798 1.56226,1.8824 3.42775,1.84157 5.38724,-0.11792 z m 11.22663,1.396 c -3.20846,-1.79554 -1.82023,-7.17147 2.41782,-9.36305 4.16446,-2.15352 5.60067,-1.77959 2.50811,0.653 -3.6894,2.90209 -3.29892,7.24387 0.69274,7.70256 2.35321,0.27041 2.99578,-0.21611 4.25,-3.21788 1.93298,-4.62626 1.86494,-6.35283 -0.27237,-6.91136 -1.31691,-0.34415 -1.19317,-0.48604 0.5,-0.57333 1.2375,-0.0638 2.25614,-0.4535 2.26365,-0.866 0.008,-0.4125 0.285,-1.7625 0.61664,-3 0.46297,-1.72757 0.16956,-2.27332 -1.26366,-2.35045 -1.02665,-0.0553 -0.11121,-0.51233 2.0343,-1.01573 2.14552,-0.50341 4.04083,-0.7754 4.2118,-0.60442 0.17098,0.17097 -0.79983,4.34055 -2.15734,9.26573 -2.27171,8.24194 -2.3371,9.05143 -0.82136,10.16779 1.34011,0.98702 0.25239,1.1967 -5.8399,1.12577 -4.1177,-0.0479 -8.2309,-0.50363 -9.14043,-1.01263 z m 25.00413,-0.31109 c -1.96254,-1.96255 -1.92887,-1.67188 -0.59883,-5.17016 0.87301,-2.29618 0.75163,-3.01013 -0.69113,-4.06509 -1.64296,-1.20135 -1.63126,-1.28056 0.191,-1.29337 1.06762,-0.008 2.92475,-0.27745 4.12696,-0.59985 2.16386,-0.58031 2.17214,-0.53434 0.82467,4.57368 -1.20532,4.56917 -1.18242,5.22848 0.2001,5.759 2.11645,0.81216 4.50489,-0.82324 6.17329,-4.22694 1.2181,-2.48503 1.18695,-2.96728 -0.25997,-4.02529 -1.41354,-1.0336 -1.12439,-1.28633 2.06359,-1.80367 2.03911,-0.3309 3.8271,-0.48201 3.97331,-0.3358 0.14621,0.14622 -0.36848,2.37351 -1.14376,4.94955 -1.27979,4.25243 -1.25339,4.77481 0.28668,5.67293 1.52528,0.8895 1.49467,0.99365 -0.30374,1.03328 -1.1,0.0242 -3.08287,0.3338 -4.40637,0.68793 -1.84288,0.49309 -2.21426,0.33302 -1.58596,-0.6836 0.62327,-1.00846 0.36047,-1.13557 -1.09363,-0.52892 -3.95659,1.65068 -6.14595,1.66658 -7.75621,0.0563 z m 22.09217,0.40492 c -2.87214,-1.67287 -2.20592,-6.35849 1.32673,-9.331 1.69219,-1.42389 4.05469,-2.56037 5.25,-2.5255 l 2.17327,0.0634 -2.18463,0.88021 c -4.22885,1.70383 -5.88119,8.36126 -2.35314,9.48102 1.07922,0.34253 2.99172,0.12245 4.25,-0.48907 l 2.28777,-1.11187 -2.36078,2.05647 c -2.55915,2.22925 -5.62544,2.58612 -8.38922,0.97636 z m 16.69562,-0.20103 c -0.32441,-0.84538 -0.10989,-3.26546 0.4767,-5.37796 1.40796,-5.07052 1.37426,-5.33886 -0.67232,-5.35295 -0.98246,-0.007 0.1588,-1.10325 2.60207,-2.5 5.21974,-2.98397 5.08598,-2.96705 4.45749,-0.56371 -0.39431,1.50784 0.11283,2.0164 2.34362,2.35016 l 2.84682,0.42594 -3.08152,0.14983 c -2.80438,0.13635 -3.17574,0.56154 -4.12907,4.72761 -1.13093,4.94216 -0.15353,6.34587 3.46059,4.96995 1.26488,-0.48154 1.44886,-0.36253 0.66369,0.42932 -0.59747,0.60256 -2.72699,1.3618 -4.73228,1.68721 -2.7458,0.44559 -3.79159,0.21217 -4.23579,-0.9454 z m 13.56969,-2.5e-4 c 0.008,-0.67024 0.39599,-1.81916 0.86127,-2.55315 0.6467,-1.02022 0.97036,-0.85879 1.37417,0.68541 0.31498,1.20447 -0.0327,2.23522 -0.86126,2.55315 -0.76422,0.29326 -1.3826,-0.0152 -1.37418,-0.68541 z m 5.73469,0.25022 c 2.77576,-1.11572 2.87564,-2.56364 0.27292,-3.95657 -1.0874,-0.58196 -2.406,-1.85954 -2.93023,-2.83907 -1.58845,-2.96804 0.33264,-4.54352 5.68831,-4.66498 4.32173,-0.098 4.86883,0.11484 4.44646,1.72999 -0.4363,1.66839 -0.6418,1.69679 -2.18329,0.30178 -1.80101,-1.62989 -5.04417,-2.09736 -5.04417,-0.72707 0,0.4471 1.35,2.10628 3,3.68708 1.65,1.5808 3,3.44916 3,4.15191 0,1.65159 -3.22713,3.36565 -6.18426,3.2847 l -2.31574,-0.0634 2.25,-0.90439 z m -187.269628,-9.0006 c -0.38836,-0.62837 -0.23556,-1.61304 0.33954,-2.18814 1.3439,-1.3439 4.47714,-0.17169 3.93038,1.47044 -0.5566,1.67167 -3.38637,2.14731 -4.26992,0.7177 z m 161.170288,-0.4362 c -0.30982,-0.80739 -0.13297,-1.73395 0.39301,-2.05902 0.52598,-0.32508 0.95633,0.33551 0.95633,1.46797 0,2.41456 -0.55611,2.65815 -1.34934,0.59105 z m 66.82971,-0.56379 c -0.38836,-0.62838 -0.23556,-1.61305 0.33954,-2.18815 1.3439,-1.3439 4.47714,-0.17169 3.93038,1.47044 -0.5566,1.67167 -3.38637,2.14731 -4.26992,0.71771 z M 14.958292,131.82378 c -0.86489,-0.86489 -0.88271,-1.52984 -0.0673,-2.51234 1.40349,-1.69109 3.98793,0.14867 3.1771,2.26166 -0.66571,1.73482 -1.55403,1.80643 -3.10978,0.25068 z m 251.846948,-0.78007 c -1.6558,-1.02334 -0.6916,-4.04373 1.29089,-4.04373 0.78341,0 1.67079,0.6421 1.97194,1.42689 0.72568,1.8911 -1.52127,3.69318 -3.26283,2.61684 z M 114.8573,121.98239 c -7.29798,-1.68953 -12.26249,-7.54652 -12.87616,-15.19094 -0.34951,-4.35379 -0.006,-5.90747 1.93808,-8.76767 3.07707,-4.52691 7.88061,-7.69621 14.64536,-9.66278 6.74925,-1.96206 12.10342,-1.33257 17.16697,2.01833 l 3.85403,2.55048 2.51912,-4.29856 c 5.81546,-9.92332 15.46282,-15.62293 27.6298,-16.32353 6.27654,-0.36142 8.0213,-0.10328 10.69567,1.58245 4.98741,3.14372 6.79089,6.67233 6.70335,13.11554 -0.18367,13.51823 -14.05095,26.91169 -27.92651,26.97231 -5.11599,0.0223 -7.58543,-1.09094 -12.55917,-5.662 l -2.58665,-2.37724 -3.93035,5.2806 c -6.18829,8.31423 -16.63472,12.76296 -25.27354,10.76301 z m 9.53252,-3.62314 c 4.39587,-2.08598 7.70087,-6.43003 10.92068,-14.35402 l 2.54678,-6.26766 -2.76987,-2.89111 c -3.93856,-4.11098 -8.99459,-5.42546 -15.03114,-3.90783 -9.71836,2.44325 -14.48844,7.23092 -14.48844,14.54186 0,5.45286 2.37444,10.06568 6.46522,12.55997 3.91242,2.38555 7.79057,2.4856 12.35677,0.31879 z m 44.90029,-9.73297 c 2.78058,-1.29479 6.64583,-4.21198 8.58944,-6.48265 10.41395,-12.16636 6.03855,-27.59925 -7.76555,-27.39057 -8.2249,0.12434 -14.15972,5.42949 -20.27628,18.12502 -4.49756,9.33512 -4.44923,9.85489 1.39336,14.98476 4.53759,3.98405 10.59297,4.24004 18.05903,0.76344 z M 5.2148721,116.96822 c -0.38836,-0.62838 -0.23556,-1.61305 0.33954,-2.18815 1.3439,-1.3439 4.4771399,-0.17169 3.93038,1.47044 -0.5566,1.67168 -3.38637,2.14732 -4.26992,0.71771 z M 275.422,116.35415 c -1.41552,-1.41552 -0.61453,-3.35417 1.38582,-3.35417 1.39797,0 1.96801,0.54305 1.75,1.66713 -0.35694,1.84048 -2.064,2.75886 -3.13582,1.68704 z M 0.21487209,100.96822 c -0.38836,-0.62838 -0.23556,-1.61305 0.33954,-2.18815 1.34390001,-1.3439 4.47714001,-0.17169 3.93038001,1.47044 -0.5566,1.67168 -3.38637,2.14732 -4.26992001,0.71771 z M 279.79528,99.57322 c -0.7981,-0.96166 -0.6967,-1.63051 0.38308,-2.52665 1.65032,-1.36964 3.55614,-0.61643 3.55614,1.40544 0,1.91056 -2.65658,2.66669 -3.93922,1.12121 z M 48.734502,88.20885 c 0,-1.0762 -3.24495,-4.9832 -7.43746,-8.95489 -4.0906,-3.87515 -7.1281,-7.38973 -6.75,-7.81018 0.3781,-0.42045 0.19955,-0.48684 -0.39679,-0.14755 -0.59633,0.3393 -3.45998,-1.61356 -6.36366,-4.33967 -2.90368,-2.72612 -6.12827,-4.95658 -7.16575,-4.95658 -1.03749,0 -1.88634,-0.41 -1.88634,-0.91111 0,-1.04735 5.7542,-6.08889 6.94961,-6.08889 1.65617,0 9.85747,4.06126 18.05039,8.9385 9.48834,5.6484 12.54918,6.38691 11.65259,2.8115 -0.728,-2.90314 -3.7509,-20.14629 -4.37308,-24.94489 -0.45166,-3.48346 -0.2661,-3.78387 3.24283,-5.25 4.92283,-2.05689 5.22766,-1.99612 5.22766,1.04211 0,1.42847 0.93171,3.52894 2.07047,4.6677 1.72784,1.72783 2.32764,1.85705 3.62439,0.78084 1.36044,-1.12906 1.48082,-0.92416 0.96684,1.64576 -0.40687,2.03435 0.0988,4.14375 1.64747,6.87194 2.06495,3.63777 2.88328,6.32431 3.23278,10.61312 0.0751,0.92212 0.46006,1.47668 0.85538,1.23236 0.39532,-0.24432 1.52617,0.92262 2.513,2.59319 0.98683,1.67058 2.35255,2.82317 3.03493,2.56131 2.03094,-0.77934 2.39207,1.05067 0.53116,2.69162 -2.16567,1.90968 -8.22642,3.29727 -8.22642,1.88341 0,-0.56124 0.45,-1.29855 1,-1.63847 1.42566,-0.88111 1.23708,-2.78449 -0.50001,-5.04661 -0.82501,-1.07436 -3.11917,-4.12173 -5.09814,-6.77192 -1.97896,-2.65019 -3.74505,-4.6716 -3.92464,-4.49201 -0.17959,0.17958 1.00201,5.21422 2.62577,11.18808 2.79004,10.26465 2.85561,10.93225 1.19307,12.14793 -1.44527,1.05681 -2.25911,1.02787 -4.56033,-0.16213 -1.54061,-0.79669 -2.53803,-1.8742 -2.21648,-2.39447 0.32155,-0.52028 -0.086,-0.6886 -0.90574,-0.37405 -0.81971,0.31455 -4.44171,-1.07856 -8.04888,-3.09581 -3.60717,-2.01724 -7.08923,-3.49081 -7.7379,-3.27458 -1.37017,0.45672 12.05735,13.72048 13.92328,13.75347 2.04095,0.0361 1.43414,1.51192 -1.5,3.64818 -4.78237,3.48191 -5.25,3.6229 -5.25,1.58279 z M 243.76923,86.79242 c -2.40795,-2.18814 -3.04382,-3.28941 -2.084,-3.60935 0.75969,-0.25323 2.99322,-1.93767 4.96338,-3.74319 l 3.58213,-3.28277 -2.37067,-2.52346 c -1.30386,-1.3879 -3.71555,-2.99229 -5.35929,-3.5653 -2.69558,-0.93969 -3.27191,-0.73861 -5.87746,2.05065 -1.58885,1.70087 -2.88882,3.9824 -2.88882,5.07007 0,2.21416 0.009,2.21615 -5.41378,-1.15036 -3.85721,-2.39443 -3.87889,-2.44162 -1.5,-3.26491 1.36327,-0.47181 3.85499,-3.21565 5.72528,-6.30459 1.82133,-3.00808 3.73383,-5.46923 4.25,-5.46923 0.51618,0 0.9385,-0.64047 0.9385,-1.42327 0,-0.78281 1.12783,-2.76363 2.50629,-4.40183 1.48819,-1.76862 2.25716,-3.62776 1.89301,-4.57673 -0.93804,-2.44449 1.26141,-1.92769 6.17052,1.44987 4.51537,3.10666 5.92225,5.5603 2.57994,4.49949 -1.37548,-0.43656 -2.58811,0.47751 -4.7259,3.56234 l -2.87566,4.14958 3.4759,2.90929 c 5.17338,4.33005 7.55959,4.60429 11.04098,1.26891 1.61421,-1.54651 2.93492,-3.85264 2.93492,-5.12474 0,-3.15285 0.78253,-2.93802 6,1.64716 3.35453,2.948 4.02758,3.96551 2.64408,3.99729 -2.58228,0.0593 -20.64408,16.82775 -20.64408,19.16579 0,2.58104 -0.93686,2.32996 -4.96527,-1.33071 z m 4.96527,-3.29244 c 0.71755,-0.86459 0.81474,-1.5 0.22943,-1.5 -0.5585,0 -1.27447,0.675 -1.59106,1.5 -0.31658,0.825 -0.41982,1.5 -0.22943,1.5 0.19039,0 0.90637,-0.675 1.59106,-1.5 z M 0.21487209,83.96822 c -0.38836,-0.62838 -0.23556,-1.61305 0.33954,-2.18815 1.34390001,-1.3439 4.47714001,-0.17169 3.93038001,1.47044 -0.5566,1.67168 -3.38637,2.14732 -4.26992001,0.71771 z M 279.07033,82.43276 c -0.91001,-2.37144 1.22281,-4.04396 3.13412,-2.45772 1.18442,0.98298 1.28444,1.61596 0.41994,2.65762 -1.49748,1.80435 -2.81336,1.73034 -3.55406,-0.1999 z m -273.9999979,-15 c -0.83346,-2.17196 1.28244,-4.21451 2.79695,-2.7 1.28004,1.28004 0.48705,4.26722 -1.13278,4.26722 -0.58452,0 -1.3334,-0.70525 -1.66417,-1.56722 z M 207.01459,65.45226 c -5.53766,-2.75953 -7.62639,-5.19951 -8.72228,-10.18907 -0.58031,-2.64216 -0.25895,-3.65298 1.8234,-5.73533 2.89762,-2.89762 3.55234,-3.02817 6.04514,-1.20539 1.70255,1.24493 1.71198,1.50933 0.16078,4.50903 -1.98686,3.84215 -0.98722,6.39311 3.39285,8.65813 4.00301,2.07004 8.63618,1.89419 10.94581,-0.41544 2.71982,-2.71982 1.59629,-5.72024 -3.31234,-8.84575 -6.54222,-4.16566 -8.61345,-6.3786 -8.61345,-9.20277 0,-3.75592 1.76128,-5.02706 6.95,-5.01592 4.66833,0.01 13.60683,3.47993 15.66495,6.08109 1.10353,1.39471 2.60727,9.90914 1.75006,9.90914 -0.24458,0 -2.20883,-0.9 -4.36501,-2 -5.22109,-2.6636 -5.33758,-2.58627 -2.46986,1.63955 1.35842,2.00175 2.46986,4.50633 2.46986,5.56574 0,8.08045 -11.43861,11.37038 -21.71991,6.24699 z m 17.71629,-19.11532 c 0.87219,-0.87219 -3.28517,-3.33696 -5.62849,-3.33696 -3.07705,0 -3.96031,1.83052 -1.71803,3.56052 1.66512,1.28471 5.96922,1.15373 7.34652,-0.22356 z m 50.09954,20.72232 c -1.51127,-0.93402 -0.81522,-4.05928 0.90408,-4.05928 1.46416,0 2.46592,2.93408 1.37442,4.02558 -0.5015,0.5015 -1.49774,0.51624 -2.2785,0.0337 z M 86.734502,64.61337 c 0,-4.36492 -11.18457,-24.23539 -13.00737,-23.10884 -0.46994,0.29044 -1.09093,0.14542 -1.37998,-0.32228 -0.43434,-0.70278 8.63308,-5.18227 10.49001,-5.18227 0.3102,0 0.56787,1.2375 0.5726,2.75 0.008,2.56985 3.0435,10.1418 7.31614,18.25 1.01438,1.925 2.87477,4.0381 4.13419,4.69577 l 2.28986,1.19578 -2.70773,1.05422 c -1.48924,0.57983 -3.83272,1.49309 -5.20772,2.02948 -2.23173,0.87059 -2.5,0.72446 -2.5,-1.36186 z m 14.732478,-4.21424 c -1.19497,-1.19498 0.29383,-7.16011 3.05552,-12.24243 1.39173,-2.5612 3.35545,-6.31561 4.36383,-8.34314 1.00838,-2.02754 2.28673,-3.96659 2.84079,-4.30902 0.55406,-0.34243 1.00738,-1.10355 1.00738,-1.69139 0,-1.41403 -7.28193,-0.24775 -11.77991,1.88668 -2.901478,1.37684 -3.538708,1.40773 -4.297998,0.20833 -2.40714,-3.80238 -0.4046,-4.74251 16.306418,-7.65539 11.7457,-2.04738 13.49848,-1.28992 8.96564,3.87445 -5.11575,5.82848 -15.00901,22.87276 -13.27637,22.87276 2.6433,0 15.60117,-3.1858 16.71385,-4.10924 1.77691,-1.47471 3.36837,-0.23545 3.36837,2.62294 0,1.98717 -0.63944,2.50549 -3.75,3.03971 -2.0625,0.35423 -6.9,1.32197 -10.75,2.15055 -11.02452,2.37264 -11.96518,2.49753 -12.76752,1.69519 z m 86.26752,-1.01225 c -2.475,-0.67427 -4.68224,-1.26216 -4.90499,-1.30642 -0.22274,-0.0443 0.30676,-0.86798 1.17668,-1.83048 0.86992,-0.9625 1.72716,-3.55 1.90499,-5.75 0.31766,-3.92992 0.26111,-4.00523 -3.22779,-4.29851 -4.48268,-0.37681 -7.34889,2.47099 -7.34889,7.3017 l 0,3.40372 -4.55,-0.58308 c -4.50728,-0.57761 -8.09127,-2.32383 -4.7695,-2.32383 1.08884,0 2.7436,-2.2738 4.7,-6.4583 1.66073,-3.55206 3.0195,-6.72675 3.0195,-7.05486 0,-0.32811 0.93745,-2.65439 2.08321,-5.1695 1.14577,-2.51511 1.8629,-5.41543 1.59362,-6.44514 -0.59457,-2.27366 -0.63977,-2.27268 10.14357,-0.21992 8.45266,1.60908 12.82815,3.34772 8.42491,3.34772 -2.38049,0 -2.6784,1.07448 -3.74298,13.5 -0.32985,3.85 -0.83537,7.94781 -1.12336,9.10624 -0.29973,1.20566 0.15195,2.78183 1.05637,3.68625 2.19525,2.19524 0.83629,2.53056 -4.43534,1.09441 z M 185.77447,40.1687 c 1.75066,-1.4176 2.11023,-2.43415 1.59173,-4.5 -0.94984,-3.78448 -3.77259,-3.34091 -5.89698,0.92666 -2.6535,5.33049 -0.28868,7.29328 4.30525,3.57334 z m -52.07874,12.90372 c 0.56738,-1.06015 0.8193,-2.52265 0.55983,-3.25 -0.25947,-0.72734 -1.12137,-5.78413 -1.91533,-11.23731 -1.05433,-7.24144 -1.90224,-10.17156 -3.14463,-10.86684 -2.65098,-1.48356 0.118,-2.68495 6.22988,-2.70298 5.13283,-0.0151 7.69643,1.23831 4.80328,2.34852 -1.71867,0.65951 -1.94418,4.32259 -0.49997,8.12114 0.93348,2.45525 1.34423,2.59683 6.71655,2.3151 5.71683,-0.29978 5.72312,-0.30366 6.60921,-4.06764 0.68643,-2.91586 0.51923,-4.32877 -0.73961,-6.25 l -1.62655,-2.48243 5.35639,0 c 5.91132,0 7.23654,0.63619 5.55237,2.6655 -0.616,0.74223 -1.26758,4.15863 -1.44796,7.59201 -0.18037,3.43337 -0.59945,8.56176 -0.93128,11.39642 -0.37423,3.19695 -0.20084,5.40267 0.45664,5.80902 2.31283,1.42941 0.83672,2.53705 -3.38103,2.53705 -4.33839,0 -6.60673,-1.23445 -4.57533,-2.48992 0.55897,-0.34546 1.01631,-2.61798 1.01631,-5.05004 0,-3.88583 -0.30389,-4.49821 -2.50657,-5.05105 -3.59447,-0.90215 -9.19457,0.3698 -9.91701,2.25245 -0.81032,2.11166 0.37993,8.33856 1.59389,8.33856 0.52125,0 0.66961,0.45 0.32969,1 -0.33992,0.55 -2.63231,1 -5.0942,1 -4.11022,0 -4.39183,-0.15759 -3.44457,-1.92756 z m 22.72188,-4.25994 c -0.31922,-0.79773 -0.55618,-0.56078 -0.60416,0.60417 -0.0434,1.05416 0.19293,1.64479 0.52522,1.3125 0.33229,-0.3323 0.36781,-1.1948 0.0789,-1.91667 z M 13.922662,52.26146 c 0.50201,-2.60673 3.81184,-2.89745 3.81184,-0.3348 0,1.43109 -0.64223,2.07332 -2.07332,2.07332 -1.4311,0 -1.96962,-0.53852 -1.73852,-1.73852 z m 251.478508,0.0718 c -1.37657,-1.37651 -0.59386,-3.33328 1.33333,-3.33328 1.33333,0 2,0.66667 2,2 0,1.92719 -1.95677,2.7099 -3.33333,1.33333 z M 26.070332,40.43276 c -0.83346,-2.17196 1.28244,-4.21451 2.79695,-2.7 1.28004,1.28004 0.48705,4.26722 -1.13278,4.26722 -0.58452,0 -1.3334,-0.70525 -1.66417,-1.56722 z m 226.999998,-1 c -0.83346,-2.17196 1.28244,-4.21451 2.79695,-2.7 1.28004,1.28004 0.48705,4.26722 -1.13278,4.26722 -0.58452,0 -1.3334,-0.70525 -1.66417,-1.56722 z M 39.393722,30.2576 c -0.28999,-0.46921 -0.15236,-1.4597 0.30584,-2.20108 1.01419,-1.64101 4.37608,-0.58055 3.78523,1.19399 -0.50041,1.50292 -3.35095,2.20464 -4.09107,1.00709 z M 238.92487,28.24998 c 0.18536,-0.9625 0.99969,-1.75 1.80963,-1.75 0.80994,0 1.62427,0.7875 1.80963,1.75 0.23646,1.22785 -0.30348,1.75 -1.80963,1.75 -1.50615,0 -2.04609,-0.52215 -1.80963,-1.75 z M 55.070332,21.43276 c -0.83346,-2.17196 1.28244,-4.21451 2.79695,-2.7 1.28004,1.28004 0.48705,4.26722 -1.13278,4.26722 -0.58452,0 -1.3334,-0.70525 -1.66417,-1.56722 z M 223.7345,20.0733 c 0,-1.43109 0.64223,-2.07332 2.07332,-2.07332 2.56265,0 2.27193,3.30983 -0.3348,3.81184 -1.2,0.2311 -1.73852,-0.30742 -1.73852,-1.73852 z m -152.999998,-6 c 0,-1.43109 0.64223,-2.07332 2.07332,-2.07332 1.4311,0 1.96962,0.53852 1.73852,1.73852 -0.50201,2.60673 -3.81184,2.89745 -3.81184,0.3348 z M 207.92487,13.24998 c 0.18536,-0.9625 0.99969,-1.75 1.80963,-1.75 0.80994,0 1.62427,0.7875 1.80963,1.75 0.23646,1.22785 -0.30348,1.75 -1.80963,1.75 -1.50615,0 -2.04609,-0.52215 -1.80963,-1.75 z M 87.175192,9.90402 c -0.37254,-0.60278 -0.0229,-1.75036 0.77689,-2.55019 1.2723,-1.2723 1.61062,-1.26578 2.70441,0.0522 0.68761,0.82851 0.95989,1.97609 0.60508,2.55019 -0.8452,1.36756 -3.22773,1.33715 -4.08638,-0.0522 z M 190.92487,8.24998 c 0.18536,-0.9625 0.99969,-1.75 1.80963,-1.75 0.80994,0 1.62427,0.7875 1.80963,1.75 0.23646,1.22785 -0.30348,1.75 -1.80963,1.75 -1.50615,0 -2.04609,-0.52215 -1.80963,-1.75 z m -86.71,-2.28176 c -0.38836,-0.62838 -0.23556,-1.61305 0.33954,-2.18815 1.3439,-1.3439 4.47714,-0.17169 3.93038,1.47044 -0.5566,1.67168 -3.38637,2.14732 -4.26992,0.71771 z m 70.1863,0.36509 c -1.37657,-1.37656 -0.59386,-3.33333 1.33333,-3.33333 1.33333,0 2,0.66667 2,2 0,1.92719 -1.95677,2.7099 -3.33333,1.33333 z M 121.7345,3.0733 c 0,-1.43109 0.64223,-2.07332 2.07332,-2.07332 1.4311,0 1.96962,0.53852 1.73852,1.73852 -0.50201,2.60673 -3.81184,2.89745 -3.81184,0.3348 z m 35,-0.0733 c 0,-1.50615 0.52215,-2.04609 1.75,-1.80963 0.9625,0.18536 1.75,0.99969 1.75,1.80963 0,0.80994 -0.7875,1.62427 -1.75,1.80963 -1.22785,0.23646 -1.75,-0.30348 -1.75,-1.80963 z m -17.5,0 c -0.81604,-1.32037 0.27686,-3 1.95203,-3 1.46268,0 2.76672,2.44792 1.8124,3.40223 C 142.06643,4.33474 139.9175,4.10512 139.2345,3 Z"
     style="fill:#ffffff" />
</svg>
