<?xml version="1.0" encoding="UTF-8" standalone="no"?>
<svg
   xmlns:dc="http://purl.org/dc/elements/1.1/"
   xmlns:cc="http://creativecommons.org/ns#"
   xmlns:rdf="http://www.w3.org/1999/02/22-rdf-syntax-ns#"
   xmlns:svg="http://www.w3.org/2000/svg"
   xmlns="http://www.w3.org/2000/svg"
   viewBox="0 0 222.20908 288.42023"
   height="288.42023"
   width="222.20908"
   version="1.1"
   id="svg2">
  <metadata
     id="metadata8">
    <rdf:RDF>
      <cc:Work
         rdf:about="">
        <dc:format>image/svg+xml</dc:format>
        <dc:type
           rdf:resource="http://purl.org/dc/dcmitype/StillImage" />
        <dc:title></dc:title>
      </cc:Work>
    </rdf:RDF>
  </metadata>
  <defs
     id="defs6" />
  <path
     id="path4166"
     d="m 38.799443,286.0167 c 0.301292,-1.32193 1.100608,-6.24911 1.776245,-10.94929 1.813795,-12.61783 1.61299,-12.28456 7.401872,-12.28456 5.916644,0 10.55363,3.52012 10.55363,8.01167 0,3.82046 -4.678426,8.01167 -8.942989,8.01167 -2.926038,0 -3.423895,0.39852 -3.423895,2.74079 0,4.19598 -1.994385,6.87322 -5.120149,6.87322 -2.308752,0 -2.697622,-0.41637 -2.244714,-2.4035 z m 11.926512,-13.73453 c 0.849942,-1.50897 0.895273,-2.60525 0.137508,-3.32524 -1.672621,-1.58925 -3.574895,-0.01 -3.574895,2.96886 0,3.2038 1.732375,3.38341 3.437387,0.35638 z m 8.339486,10.08768 c 1.182813,-9.02007 2.065404,-10.15373 7.601528,-9.76401 5.20301,0.36627 6.859684,2.53578 2.97818,3.90007 -1.762177,0.61938 -3.111784,2.54227 -4.31014,6.14096 -1.36822,4.10884 -2.320972,5.31668 -4.415863,5.59821 -2.627053,0.35304 -2.6577,0.2559 -1.853705,-5.87523 z m 15.716452,3.42834 c -8.244898,-7.83392 4.712718,-18.21802 13.634373,-10.92644 l 3.02818,2.47489 2.60472,-2.47489 c 1.73863,-1.65196 3.92303,-2.4749 6.569334,-2.4749 3.32379,0 4.05892,-0.43165 4.54816,-2.67055 0.32095,-1.46881 0.84614,-3.87231 1.1671,-5.34112 0.441,-2.01827 1.29459,-2.67056 3.49466,-2.67056 2.45104,0 2.81426,0.37985 2.29816,2.40351 -0.33711,1.32192 -1.25067,7.33068 -2.03014,13.35278 l -1.4172,10.94929 -6.57738,0 c -5.496324,0 -6.987864,-0.42084 -9.074834,-2.56047 l -2.49744,-2.56046 -3.13288,2.56046 c -4.10038,3.35121 -9.048441,3.32707 -12.614813,-0.0615 z m 27.551937,-3.70995 c 1.19533,-2.12215 0.51358,-5.41849 -1.12064,-5.41849 -0.50803,0 -1.717694,0.75443 -2.688154,1.67652 -1.3319,1.2655 -1.4797,2.18209 -0.60288,3.73878 1.47514,2.61894 2.937734,2.62 4.411674,0.003 z m -18.317714,-0.69432 c 0.37432,-0.92684 -0.0752,-2.40328 -0.99895,-3.28097 -1.48984,-1.41559 -1.89247,-1.39346 -3.565322,0.19601 -1.459103,1.38637 -1.591488,2.12876 -0.585084,3.28097 1.735086,1.98642 4.307476,1.8885 5.149356,-0.19601 z m 29.603924,4.88983 c -3.93572,-3.73955 -2.25008,-13.8869 2.30685,-13.8869 1.95689,0 2.32814,0.59603 2.16243,3.47173 -0.33753,5.85793 -0.0345,7.2105 1.61535,7.2105 0.97217,0 1.87785,-1.6325 2.3364,-4.21139 0.81962,-4.60944 3.01528,-7.0387 5.53236,-6.12096 1.38796,0.50606 1.40332,1.4547 0.10917,6.74431 -0.82827,3.38549 -2.40421,6.77951 -3.50211,7.5423 -2.94389,2.04536 -7.99631,1.68674 -10.56045,-0.74959 z m 20.77024,-0.28654 c -2.70913,-2.21413 -3.00851,-3.03852 -2.33754,-6.43682 0.42938,-2.17477 1.85411,-4.61926 3.22332,-5.5305 3.10805,-2.06845 9.13031,-2.11124 10.90673,-0.0774 1.75854,2.01331 0.42525,4.04546 -2.14559,3.27019 -1.147,-0.3459 -3.14075,0.3174 -4.68349,1.55816 -2.55077,2.05148 -2.5844,2.23564 -0.66658,3.65052 1.11085,0.81953 3.05247,1.23345 4.31475,0.91981 1.90078,-0.47229 2.22978,-0.13177 1.9152,1.98239 -0.55174,3.70798 -6.35433,4.07386 -10.5268,0.66375 z m 15.07289,2.15593 c -0.0732,-0.14688 -0.23498,-3.73283 -0.3593,-7.96877 -0.19033,-6.48489 0.15757,-8.15883 2.20201,-10.595 2.9859,-3.55801 5.58022,-2.88636 6.54442,1.69431 0.61465,2.92007 0.98136,3.20217 2.89661,2.22826 2.88077,-1.4649 7.62779,-1.42485 8.60181,0.0725 0.8475,1.30297 -1.67747,3.2622 -3.11574,2.41761 -1.82654,-1.07261 -0.82112,1.80783 1.35166,3.8723 2.7069,2.57199 2.85037,4.61667 0.48182,6.86715 -2.22263,2.11183 -6.1419,2.154 -8.97998,0.0966 -1.84161,-1.33502 -1.92851,-1.74035 -0.55652,-2.59602 1.03583,-0.64603 2.39264,-0.62406 3.73894,0.0606 1.8409,0.9361 1.95979,0.82329 0.92274,-0.87571 -1.57817,-2.58547 -5.36617,-6.75719 -6.1357,-6.75719 -0.33663,0 -0.95452,1.80262 -1.37309,4.00583 -1.00153,5.27152 -2.41922,7.74462 -4.43958,7.74462 -0.90575,0 -1.7068,-0.12018 -1.7801,-0.26706 z m -15.80115,-39.1609 c -4.83959,-3.63729 -6.00249,-12.92659 -2.49695,-19.94573 2.4171,-4.83978 7.29319,-7.28413 12.6775,-6.35514 2.23711,0.38598 6.49084,0.65503 9.45271,0.59788 2.96186,-0.0572 5.79558,0.13707 6.29712,0.43159 1.48735,0.87341 -2.6121,24.13697 -4.44783,25.24069 -0.88726,0.53346 -2.87801,0.98147 -4.42388,0.99557 -1.54585,0.0141 -5.34024,0.311 -8.43197,0.65977 -4.66146,0.52585 -6.13448,0.24843 -8.6267,-1.62463 z m 13.02382,-7.65582 c 3.51964,-3.97434 3.65062,-6.21356 0.58047,-9.92209 -2.79552,-3.37677 -3.72432,-3.4713 -6.66398,-0.67817 -2.78628,2.64741 -2.99901,9.19195 -0.38787,11.93339 2.49382,2.61829 3.07878,2.49779 6.47138,-1.33313 z m 16.68281,7.57124 c -4.23015,-2.45061 -4.44495,-3.27323 -1.51302,-5.79433 1.81204,-1.55813 2.49839,-1.62868 4.46899,-0.45937 1.84665,1.09577 2.61513,1.10881 3.71575,0.063 1.10062,-1.04575 0.86462,-1.66648 -1.14109,-3.00131 -7.47078,-4.97192 -8.97595,-10.34301 -4.1764,-14.90332 3.22764,-3.06677 8.09401,-3.42043 13.11549,-0.95316 2.96363,1.45616 3.20727,1.89864 1.91163,3.47173 -2.39893,2.91267 -3.48536,3.32066 -5.76099,2.16348 -1.50307,-0.76432 -2.52884,-0.73147 -3.41374,0.10931 -0.93716,0.89045 0.11389,2.32184 4.05562,5.52319 2.92635,2.37669 5.32063,4.98227 5.32063,5.79019 0,2.98985 -2.77714,7.11547 -5.78436,8.59305 -4.15658,2.04232 -6.45441,1.9141 -10.79851,-0.60252 z M 4.5666023,249.16374 c 0,-0.44023 3.077557,-9.57354 6.8390007,-20.29624 l 6.838988,-19.4958 4.838105,0 4.838105,0 0.773156,5.07406 c 0.425229,2.79073 1.320367,7.18779 1.989179,9.77125 1.139574,4.40182 1.319535,4.56975 2.862035,2.67055 0.905302,-1.11464 3.371392,-5.51171 5.480215,-9.77125 l 3.834229,-7.74461 5.025127,0 5.025137,0 0,20.29623 0,20.29624 -4.497049,0 -4.497048,0 -0.01236,-6.14228 c -0.0068,-3.37826 -0.330782,-7.97315 -0.719945,-10.21088 l -0.707576,-4.06859 -4.971712,8.8756 c -2.734443,4.88157 -5.69893,9.57948 -6.58775,10.43978 -2.718264,2.63103 -4.760476,-0.63713 -6.995307,-11.19456 -1.114547,-5.26518 -2.316102,-9.09789 -2.670133,-8.51713 -0.35403,0.58077 -1.780943,4.42084 -3.170926,8.5335 -3.580729,10.59465 -4.901951,12.28456 -9.6044477,12.28456 -2.14995,0 -3.909004,-0.36019 -3.909004,-0.80043 z m 53.2625757,-2.13718 c 0.330489,-1.61569 1.201668,-6.78322 1.935935,-11.4834 0.734278,-4.70018 1.786666,-9.38701 2.338647,-10.41517 1.004963,-1.87195 7.037103,-2.67384 8.035559,-1.06823 0.67825,1.09069 -2.948444,22.89954 -4.085715,24.56913 -0.500245,0.73441 -2.690596,1.33528 -4.867434,1.33528 -3.713878,0 -3.920853,-0.18112 -3.356992,-2.93761 z m 14.391244,-0.53411 c 7.897614,-10.10452 11.044544,-14.55864 11.044544,-15.63236 0,-0.65568 -1.7866,-1.19216 -3.97021,-1.19216 -4.392251,0 -6.171428,-2.20609 -3.887749,-4.8206 1.056842,-1.20994 4.035393,-1.58873 12.492659,-1.58873 6.10773,0 11.10497,0.30565 11.10497,0.67923 0,0.37356 -2.99529,4.65797 -6.65618,9.52091 -3.66089,4.86292 -6.35913,9.12393 -5.99605,9.46889 0.36305,0.34496 2.61533,0.6272 5.00505,0.6272 2.99487,0 4.56543,0.54589 5.05446,1.75681 1.37054,3.39352 -2.73774,4.65253 -15.18167,4.65253 l -11.723311,0 2.713487,-3.47172 z m 28.611798,2.62056 c -0.44816,-0.68898 2.05692,-18.45942 5.56465,-39.47426 0.54377,-3.25767 0.8615,-3.47172 5.15325,-3.47172 l 4.57376,0 -0.74654,5.07406 c -0.41059,2.79073 -1.02245,6.59677 -1.35968,8.45787 l -0.61314,3.38381 4.63005,-0.59007 c 8.71079,-1.11013 10.33031,2.9425 8.35433,20.90544 l -0.72229,6.56603 -5.01931,0 c -3.83648,0 -4.87719,-0.35185 -4.4163,-1.49309 1.04514,-2.58783 2.19629,-16.49433 1.50668,-18.2018 -0.369,-0.91367 -1.39769,-1.36448 -2.33431,-1.02298 -1.95247,0.71188 -3.59933,5.18757 -4.67536,12.7062 -0.42042,2.93761 -1.26844,5.94199 -1.88449,6.67639 -1.23642,1.47395 -7.13559,1.83044 -8.0113,0.48412 z m 82.07114,0 c -0.44816,-0.68898 2.05693,-18.45942 5.56466,-39.47426 0.54376,-3.25767 0.86147,-3.47172 5.15324,-3.47172 l 4.57375,0 -0.74652,5.07406 c -0.4106,2.79073 -1.02245,6.59677 -1.35969,8.45787 l -0.61314,3.38381 4.63004,-0.59007 c 8.71081,-1.11013 10.33034,2.9425 8.35435,20.90544 l -0.72228,6.56603 -5.01932,0 c -3.83647,0 -4.87721,-0.35185 -4.41629,-1.49309 1.04513,-2.58783 2.19625,-16.49433 1.50666,-18.2018 -0.36899,-0.91367 -1.3977,-1.36448 -2.3343,-1.02298 -1.95247,0.71188 -3.59935,5.18757 -4.67537,12.7062 -0.42041,2.93761 -1.26843,5.94199 -1.88449,6.67639 -1.23642,1.47395 -7.13558,1.83044 -8.0113,0.48412 z M 63.670677,216.23884 c -0.971687,-0.92324 -1.7667,-2.33101 -1.7667,-3.12836 0,-2.22383 3.24517,-4.80701 6.038893,-4.80701 3.147273,0 5.203727,1.89968 5.203727,4.80701 0,4.57036 -5.906155,6.52021 -9.47592,3.12836 z M 93.071476,194.3753 c -6.95572,-1.11142 -13.787598,-4.97251 -19.843116,-11.21452 l -4.84808,-4.99738 0.482822,-8.69793 c 0.567305,-10.21949 3.333797,-16.77166 12.263704,-29.04535 6.5664,-9.02517 26.689884,-29.32494 29.070264,-29.32494 2.12474,0 17.87303,15.74023 26.18487,26.17146 25.19924,31.6247 18.82634,53.97486 -16.31151,57.20544 -12.15511,1.11754 -19.56546,1.09099 -26.998954,-0.0968 z M 35.900275,178.32935 c -5.682144,-1.2776 -16.718262,-6.02693 -16.718262,-7.19462 0,-1.39328 5.914225,-8.84015 9.506041,-11.96951 4.513194,-3.93209 10.98873,-12.62597 10.250113,-13.76151 -0.352086,-0.54128 -5.746239,-3.96556 -11.987019,-7.60949 -12.662139,-7.39331 -21.2602817,-14.57444 -21.2602817,-17.7565 0,-2.94856 2.154715,-4.66965 5.8461627,-4.66965 2.905218,0 7.644984,-3.16452 7.644984,-5.1042 0,-1.01879 -3.464336,-5.58578 -10.0017637,-13.185257 -8.647915,-10.052821 -11.698016,-19.843936 -6.93608,-22.265418 3.057915,-1.55497 10.0203357,-1.374272 16.3061987,0.423199 2.940868,0.840953 5.985504,1.296211 6.765855,1.011686 0.780362,-0.284526 2.717039,-3.376079 4.303733,-6.87012 1.586694,-3.494041 3.600831,-6.352803 4.475867,-6.352803 3.359701,0 15.293507,6.659456 24.829376,13.855609 12.715766,9.595822 15.124251,9.878844 11.337431,1.332259 -2.10252,-4.745243 -8.358653,-28.587323 -8.358653,-31.854782 0,-4.30339 2.859833,-5.231657 16.117823,-5.231657 l 12.375416,0 2.09141,-7.477561 c 1.15027,-4.112659 2.82975,-10.498044 3.73218,-14.189745 C 98.928056,8.3842911 104.79554,0 109.83875,0 c 6.9204,0 14.1267,13.854272 17.33142,33.32009 0.74403,4.519268 1.92048,8.419879 2.61435,8.668026 0.69388,0.248147 6.57373,-0.160551 13.06634,-0.908216 6.49262,-0.747666 12.05772,-1.120891 12.36689,-0.829389 0.30917,0.291502 0.51356,5.414874 0.45421,11.38527 -0.0902,9.063386 -0.69515,12.602074 -3.6654,21.437494 -1.95664,5.820227 -3.34635,10.78285 -3.08829,11.028054 0.80851,0.768214 6.83944,-2.620522 12.01339,-6.750247 2.73161,-2.180312 8.46462,-6.175416 12.74,-8.878009 4.2754,-2.702592 8.43098,-5.38112 9.23466,-5.952283 2.46884,-1.75458 7.5171,2.760862 9.57692,8.566148 1.01817,2.869561 2.40901,5.394043 3.09074,5.609959 0.68172,0.215916 3.40725,-0.394029 6.05671,-1.355433 6.30706,-2.288629 18.60438,-1.884332 20.29006,0.667073 1.69387,2.563791 -4.26947,13.43985 -12.79522,23.336205 -11.06078,12.838888 -11.09274,13.678698 -0.60549,15.908658 7.90521,1.68092 9.27502,3.20208 6.21358,6.90008 -3.35346,4.05072 -13.7833,11.41977 -23.53948,16.63144 -4.63759,2.47736 -9.11376,5.13611 -9.94704,5.90833 -2.0094,1.86213 -0.63065,4.23901 6.48569,11.18091 3.04436,2.96973 7.41955,7.58449 9.72265,10.25503 4.02712,4.66961 4.10581,4.91505 2.0548,6.41055 -3.18031,2.31894 -15.87177,5.94934 -23.13369,6.6174 l -6.38561,0.58745 -0.59503,-3.61329 c -0.32728,-1.98731 -0.78112,-7.51478 -1.00853,-12.28326 -0.36719,-7.69922 -0.95238,-9.67271 -5.22646,-17.62568 -11.12837,-20.70703 -17.98796,-29.69828 -38.41253,-50.349343 -7.26875,-7.349378 -13.28589,-12.551623 -14.51771,-12.551623 -5.11361,0 -28.951354,25.282526 -43.094783,45.706696 -13.022305,18.80521 -16.935051,28.55154 -16.292456,40.58321 0.357088,6.68599 0.210249,7.19752 -2.430611,8.46727 -3.16753,1.52298 -6.552672,1.59082 -12.512555,0.25078 z"
     style="fill:#ffffff;fill-opacity:1" />
</svg>
